<svg width="312" height="50" viewBox="0 0 312 50" fill="none" xmlns="http://www.w3.org/2000/svg">
<path d="M40.1484 20.9941C40.1484 11.9316 46.0859 6.4043 55.0312 6.4043C63.9766 6.4043 69.9141 11.9316 69.9141 20.9941C69.9141 30.0762 63.9961 35.584 55.0312 35.584C46.0664 35.584 40.1484 30.0762 40.1484 20.9941ZM55.0312 10.8184C48.7422 10.8184 45.5 14.9395 45.5 20.9941C45.5 27.0488 48.7422 31.1699 55.0312 31.1699C61.3203 31.1699 64.5625 27.0488 64.5625 20.9941C64.5625 14.9395 61.3203 10.8184 55.0312 10.8184ZM75.0016 34.998V5.38867H79.9039V18.377C81.1344 15.9355 84.1031 14.6465 86.7203 14.6465C92.8531 14.6465 96.525 19.0801 96.525 25.0176C96.525 30.9551 92.8531 35.3887 86.7203 35.3887C84.1031 35.3887 81.1344 34.0996 79.9039 31.6582V34.998H75.0016ZM79.9039 25.0176C79.9039 28.6699 81.8961 31.2871 85.7047 31.2871C89.5133 31.2871 91.5055 28.6699 91.5055 25.0176C91.5055 21.3652 89.5133 18.748 85.7047 18.748C81.8961 18.748 79.9039 21.3652 79.9039 25.0176ZM99.425 19.1191V15.0371H103.273V9.19727H108.175V15.0371H113.878V19.1191H108.175V26.5215C108.175 28.6504 108.234 31.3066 111.046 31.3066C111.964 31.3066 112.882 31.1309 113.722 30.7402L114.816 34.5098C113.39 35.1543 111.827 35.3887 110.265 35.3887C104.171 35.3887 103.273 31.3457 103.273 26.1895V19.1191H99.425ZM119.122 34.998V15.0371H124.024V18.084C124.825 15.7402 127.325 14.6465 129.649 14.6465C131.075 14.6465 132.54 14.8613 133.848 15.4473L131.583 19.373C130.762 18.8848 129.805 18.7285 128.868 18.7285C125.313 18.7285 124.024 21.0527 124.024 24.3145V34.998H119.122ZM136.162 28.8066C136.162 23.0254 142.471 21.8145 147.041 21.8145C148.135 21.8145 149.248 21.873 150.342 21.9902C150.381 19.1191 148.877 18.7285 146.377 18.7285C144.209 18.7285 141.729 19.2363 139.756 20.1348L137.901 16.6387C140.401 15.2324 143.526 14.6465 146.377 14.6465C153.096 14.6465 155.245 17.0293 155.245 23.6699V34.998H150.342L150.323 31.8535C149.19 34.5098 146.553 35.3887 143.858 35.3887C139.58 35.3887 136.162 33.4941 136.162 28.8066ZM148.37 25.0957C146.026 25.0957 141.084 25.3496 141.084 28.6113C141.084 30.7207 142.842 31.3066 144.639 31.3066C147.041 31.3066 150.342 30.0371 150.342 27.1855V25.1543C149.678 25.1152 149.034 25.0957 148.37 25.0957ZM169.766 35.3887C163.633 35.3887 159.961 30.9551 159.961 25.0176C159.961 19.0801 163.633 14.6465 169.766 14.6465C172.383 14.6465 175.352 15.9355 176.582 18.377V5.38867H181.484V34.998H176.582V31.6582C175.352 34.0996 172.383 35.3887 169.766 35.3887ZM170.781 18.748C166.973 18.748 164.98 21.3652 164.98 25.0176C164.98 28.6699 166.973 31.2871 170.781 31.2871C174.59 31.2871 176.582 28.6699 176.582 25.0176C176.582 21.3652 174.59 18.748 170.781 18.748ZM186.181 25.0176C186.181 18.6113 190.38 14.6465 196.728 14.6465C203.759 14.6465 207.295 19.1191 207.295 25.8965C207.295 26.248 207.295 26.5801 207.275 26.9316H191.474C191.943 29.7051 193.74 31.3066 196.728 31.3066C199.013 31.3066 201.162 30.7207 202.939 29.2168L205.908 32.166C203.408 34.6465 200.146 35.3887 196.728 35.3887C190.361 35.3887 186.181 31.4434 186.181 25.0176ZM196.728 18.7285C193.798 18.7285 191.865 20.3105 191.474 23.084H201.982C201.591 20.3105 199.658 18.7285 196.728 18.7285ZM212.011 34.998V15.0371H216.913V18.084C217.714 15.7402 220.214 14.6465 222.538 14.6465C223.964 14.6465 225.429 14.8613 226.738 15.4473L224.472 19.373C223.652 18.8848 222.695 18.7285 221.757 18.7285C218.202 18.7285 216.913 21.0527 216.913 24.3145V34.998H212.011ZM228.661 33.0449L230.731 29.5098C232.938 30.6621 235.595 31.3066 238.075 31.3066C239.598 31.3066 241.845 31.1699 241.845 29.1387C241.845 27.459 238.602 27.166 237.411 26.9512C233.759 26.2871 229.423 25.0762 229.423 20.5449C229.423 15.7988 233.7 14.6465 237.645 14.6465C240.477 14.6465 243.368 15.0957 245.809 16.6191L243.739 20.1543C241.884 19.1777 239.735 18.7285 237.645 18.7285C236.395 18.7285 234.325 18.8457 234.325 20.5449C234.325 21.8926 236.005 22.3613 238.134 22.791C241.786 23.5723 246.766 24.2754 246.766 29.334C246.766 34.2949 242.137 35.3887 238.075 35.3887C235.009 35.3887 231.278 34.6855 228.661 33.0449Z" fill="#333333"/>
<path d="M254.134 34.1685C253.608 34.1685 253.157 33.9803 252.781 33.6039C252.404 33.2275 252.216 32.7765 252.216 32.2509C252.216 31.7253 252.404 31.2743 252.781 30.8979C253.157 30.5215 253.608 30.3333 254.134 30.3333C254.659 30.3333 255.11 30.5215 255.487 30.8979C255.863 31.2743 256.051 31.7253 256.051 32.2509C256.051 32.5989 255.962 32.9185 255.785 33.2097C255.614 33.5009 255.384 33.7353 255.092 33.9128C254.808 34.0833 254.489 34.1685 254.134 34.1685ZM266.317 34.2935C264.988 34.2935 263.843 33.9796 262.883 33.3517C261.923 32.7239 261.184 31.8591 260.667 30.7573C260.15 29.6555 259.891 28.3967 259.891 26.981C259.891 25.5407 260.156 24.2696 260.685 23.1678C261.221 22.0598 261.966 21.195 262.92 20.5733C263.88 19.9455 265 19.6316 266.28 19.6316C267.278 19.6316 268.176 19.8162 268.976 20.1855C269.777 20.5549 270.432 21.0719 270.943 21.7367C271.454 22.4015 271.771 23.177 271.894 24.0634H269.715C269.549 23.4171 269.18 22.8446 268.607 22.3461C268.041 21.8413 267.278 21.589 266.317 21.589C265.468 21.589 264.723 21.8105 264.083 22.2537C263.449 22.6908 262.954 23.3094 262.597 24.1096C262.246 24.9036 262.07 25.8361 262.07 26.9071C262.07 28.0028 262.243 28.9569 262.587 29.7694C262.938 30.5819 263.431 31.2128 264.065 31.6621C264.705 32.1114 265.456 32.3361 266.317 32.3361C266.884 32.3361 267.398 32.2376 267.859 32.0407C268.321 31.8437 268.712 31.5605 269.032 31.1912C269.352 30.8219 269.58 30.3787 269.715 29.8617H271.894C271.771 30.6988 271.466 31.4528 270.98 32.1238C270.5 32.7885 269.863 33.3179 269.069 33.7118C268.281 34.0996 267.364 34.2935 266.317 34.2935ZM281.101 34.2935C279.821 34.2935 278.697 33.9888 277.731 33.3794C276.771 32.7701 276.02 31.9176 275.478 30.8219C274.942 29.7263 274.675 28.446 274.675 26.981C274.675 25.5037 274.942 24.2142 275.478 23.1124C276.02 22.0106 276.771 21.155 277.731 20.5456C278.697 19.9363 279.821 19.6316 281.101 19.6316C282.381 19.6316 283.501 19.9363 284.462 20.5456C285.428 21.155 286.179 22.0106 286.714 23.1124C287.256 24.2142 287.527 25.5037 287.527 26.981C287.527 28.446 287.256 29.7263 286.714 30.8219C286.179 31.9176 285.428 32.7701 284.462 33.3794C283.501 33.9888 282.381 34.2935 281.101 34.2935ZM281.101 32.3361C282.073 32.3361 282.874 32.0868 283.501 31.5882C284.129 31.0897 284.594 30.4341 284.896 29.6216C285.197 28.8091 285.348 27.9289 285.348 26.981C285.348 26.0331 285.197 25.1498 284.896 24.3311C284.594 23.5125 284.129 22.8508 283.501 22.3461C282.874 21.8413 282.073 21.589 281.101 21.589C280.128 21.589 279.328 21.8413 278.7 22.3461C278.072 22.8508 277.608 23.5125 277.306 24.3311C277.004 25.1498 276.854 26.0331 276.854 26.981C276.854 27.9289 277.004 28.8091 277.306 29.6216C277.608 30.4341 278.072 31.0897 278.7 31.5882C279.328 32.0868 280.128 32.3361 281.101 32.3361ZM291.113 33.998V19.8162H293.218V22.0321H293.403C293.698 21.275 294.175 20.6872 294.834 20.2686C295.493 19.8439 296.284 19.6316 297.207 19.6316C298.143 19.6316 298.921 19.8439 299.543 20.2686C300.171 20.6872 300.66 21.275 301.011 22.0321H301.159C301.522 21.2997 302.067 20.718 302.793 20.2871C303.519 19.8501 304.39 19.6316 305.406 19.6316C306.674 19.6316 307.711 20.0286 308.517 20.8226C309.324 21.6105 309.727 22.8385 309.727 24.5066V33.998H307.548V24.5066C307.548 23.4602 307.262 22.7123 306.689 22.263C306.117 21.8136 305.443 21.589 304.667 21.589C303.67 21.589 302.897 21.8906 302.35 22.4938C301.802 23.0908 301.528 23.848 301.528 24.7651V33.998H299.312V24.285C299.312 23.4786 299.05 22.8292 298.527 22.3368C298.004 21.8382 297.33 21.589 296.505 21.589C295.939 21.589 295.41 21.7398 294.917 22.0414C294.431 22.343 294.037 22.7615 293.735 23.2971C293.44 23.8264 293.292 24.4389 293.292 25.1344V33.998H291.113Z" fill="#333333"/>
<path d="M9.79913 23.6218L18.3291 8.86208C19.7787 6.35401 18.9188 3.14753 16.4077 1.70104C13.8965 0.254554 10.6838 1.11127 9.23419 3.61934L0.704262 18.3791C-0.74533 20.8872 0.114493 24.0906 2.62567 25.5401C5.13685 26.9897 8.34954 26.1299 9.79913 23.6218Z" fill="#FAA61A"/>
<path d="M24.9409 16.4545C22.4297 15.008 19.217 15.8647 17.7674 18.3728L9.23747 33.1325C7.78787 35.6406 8.64769 38.844 11.1589 40.2936C13.67 41.7432 16.8827 40.8833 18.3323 38.3753L26.8623 23.6155C28.3119 21.1074 27.452 17.9009 24.9409 16.4545Z" fill="#FAA61A"/>
</svg>
