<svg width="128" height="129" viewBox="0 0 128 129" fill="none" xmlns="http://www.w3.org/2000/svg">
<path d="M63.8334 128.664C99.0876 128.664 127.667 100.085 127.667 64.8309C127.667 29.5767 99.0876 0.997559 63.8334 0.997559C28.5792 0.997559 0 29.5767 0 64.8309C0 100.085 28.5792 128.664 63.8334 128.664Z" fill="url(#paint0_linear_179_2890)"/>
<path d="M26.5668 64.2775L69.5529 46.5665C73.7961 44.7216 88.1863 38.8179 88.1863 38.8179C88.1863 38.8179 94.8279 36.2351 94.2745 42.5077C94.09 45.0906 92.6141 54.1305 91.1382 63.9085L86.5259 92.8734C86.5259 92.8734 86.1569 97.1166 83.0206 97.8546C79.8843 98.5925 74.7186 95.2717 73.7961 94.5338C73.0582 93.9803 59.9594 85.6783 55.1627 81.6195C53.8713 80.5126 52.3953 78.2987 55.3472 75.7158C61.9888 69.6277 69.9219 62.0636 74.7186 57.2669C76.9325 55.053 79.1463 49.8873 69.9219 56.1599L43.9088 73.6864C43.9088 73.6864 40.957 75.5313 35.4223 73.8709C29.8876 72.2105 23.4305 69.9967 23.4305 69.9967C23.4305 69.9967 19.0027 67.2293 26.5668 64.2775Z" fill="white"/>
<defs>
<linearGradient id="paint0_linear_179_2890" x1="85.1161" y1="22.2803" x2="53.1994" y2="96.7476" gradientUnits="userSpaceOnUse">
<stop stop-color="#37AEE2"/>
<stop offset="1" stop-color="#1E96C8"/>
</linearGradient>
</defs>
</svg>
